<svg xmlns="http://www.w3.org/2000/svg" width="640" height="220" viewBox="0 0 640 220">
  <defs>
    <symbol id="spark" viewBox="-16 -16 32 32">
      <path d="M0 -15 L3 -3 L15 0 L3 3 L0 15 L-3 3 L-15 0 L-3 -3 Z" fill="#fff8d7" opacity="0.78"/>
      <circle cx="0" cy="0" r="3.1" fill="#8cf8ff" opacity="0.66"/>
    </symbol>
    <radialGradient id="dot" cx="50%" cy="50%" r="50%">
      <stop offset="0" stop-color="#fefbdc" stop-opacity="0.9"/>
      <stop offset="0.36" stop-color="#96f8ff" stop-opacity="0.45"/>
      <stop offset="1" stop-color="#96f8ff" stop-opacity="0"/>
    </radialGradient>
  </defs>
  <use href="#spark" x="112" y="70" width="24" height="24" opacity="0.7"/>
  <use href="#spark" x="302" y="44" width="18" height="18" opacity="0.6"/>
  <use href="#spark" x="430" y="154" width="26" height="26" opacity="0.74"/>
  <use href="#spark" x="552" y="92" width="20" height="20" opacity="0.56"/>
  <use href="#spark" x="236" y="134" width="14" height="14" opacity="0.5"/>
  <use href="#spark" x="504" y="52" width="12" height="12" opacity="0.48"/>
  <g fill="url(#dot)" opacity="0.72">
    <circle cx="128" cy="130" r="7"/>
    <circle cx="204" cy="152" r="5"/>
    <circle cx="336" cy="104" r="6"/>
    <circle cx="456" cy="58" r="4.5"/>
    <circle cx="514" cy="112" r="5"/>
    <circle cx="584" cy="74" r="4"/>
  </g>
</svg>
